<svg width="160" height="64" fill="none" xmlns="http://www.w3.org/2000/svg"><path d="M68.01 52.679V28h9.635c5.534 0 8.749 3.455 8.749 8.36 0 4.936-3.266 8.319-8.882 8.319h-4.354v8H68h.01Zm5.148-12.185h3.51c2.95 0 4.395-1.687 4.395-4.134 0-2.458-1.445-4.093-4.426-4.093h-3.479v8.227Zm19.818 12.534c-3.49 0-6.084-1.85-6.084-5.522 0-4.133 3.256-5.357 6.888-5.696 3.174-.309 4.425-.473 4.425-1.666v-.072c0-1.512-.986-2.396-2.716-2.396-1.821 0-2.91.905-3.255 2.129l-4.69-.38c.702-3.374 3.58-5.492 7.976-5.492 4.07 0 7.772 1.851 7.772 6.262V52.68H98.47v-2.571h-.142c-.896 1.728-2.646 2.92-5.352 2.92Zm1.455-3.547c2.238 0 3.815-1.481 3.815-3.414v-1.964c-.61.411-2.421.668-3.53.822-1.79.258-2.97.967-2.97 2.417 0 1.409 1.118 2.139 2.685 2.139ZM114.086 60c-4.944 0-7.762-2.231-8.372-5.152l4.7-.637c.407 1.12 1.546 2.108 3.784 2.108 2.208 0 3.815-.987 3.815-3.527v-3.394h-.203c-.671 1.543-2.309 3.013-5.229 3.013-4.131 0-7.427-2.869-7.427-9.028 0-6.293 3.398-9.46 7.417-9.46 3.052 0 4.547 1.85 5.229 3.352h.193V34.17h5.046v18.694c0 4.73-3.723 7.136-8.953 7.136Zm.102-11.445c2.442 0 3.856-1.923 3.856-5.193 0-3.239-1.384-5.347-3.856-5.347-2.513 0-3.845 2.2-3.845 5.347 0 3.188 1.353 5.193 3.845 5.193Zm19.839 4.484c-5.636 0-9.085-3.661-9.085-9.533 0-5.706 3.499-9.573 8.881-9.573 4.843 0 8.607 3.106 8.607 9.399v1.408h-12.463c0 2.777 1.608 4.473 4.151 4.473 1.689 0 3.002-.74 3.51-2.159l4.7.319c-.712 3.434-3.764 5.666-8.301 5.666Zm-4.07-11.486h7.702a3.684 3.684 0 0 0-.244-1.473 3.65 3.65 0 0 0-2.043-2.071 3.581 3.581 0 0 0-1.457-.25 3.844 3.844 0 0 0-2.751 1.078 3.927 3.927 0 0 0-1.197 2.726l-.01-.01Zm29.626-2.108-4.649.288c-.255-1.193-1.303-2.16-3.063-2.16-1.577 0-2.818.72-2.808 1.83 0 .885.621 1.481 2.33 1.852l3.317.678c3.55.73 5.28 2.334 5.29 5.008-.01 3.65-3.408 6.098-8.159 6.098-4.853 0-7.834-2.18-8.302-5.718l4.985-.267c.316 1.501 1.526 2.283 3.337 2.283 1.77 0 2.95-.782 2.971-1.872-.021-.925-.743-1.522-2.34-1.85l-3.174-.638c-3.581-.72-5.311-2.52-5.291-5.285-.02-3.569 3.073-5.759 7.753-5.759 4.629 0 7.345 2.108 7.803 5.512Z" fill="#fff"/><path d="M68.01 52.679V28h9.635c5.534 0 8.749 3.455 8.749 8.36 0 4.936-3.266 8.319-8.882 8.319h-4.354v8H68h.01Zm5.148-12.185h3.51c2.95 0 4.395-1.687 4.395-4.134 0-2.458-1.445-4.093-4.426-4.093h-3.479v8.227Zm19.818 12.534c-3.49 0-6.084-1.85-6.084-5.522 0-4.133 3.256-5.357 6.888-5.696 3.174-.309 4.425-.473 4.425-1.666v-.072c0-1.512-.986-2.396-2.716-2.396-1.821 0-2.91.905-3.255 2.129l-4.69-.38c.702-3.374 3.58-5.492 7.976-5.492 4.07 0 7.772 1.851 7.772 6.262V52.68H98.47v-2.571h-.142c-.896 1.728-2.646 2.92-5.352 2.92Zm1.455-3.547c2.238 0 3.815-1.481 3.815-3.414v-1.964c-.61.411-2.421.668-3.53.822-1.79.258-2.97.967-2.97 2.417 0 1.409 1.118 2.139 2.685 2.139ZM114.086 60c-4.944 0-7.762-2.231-8.372-5.152l4.7-.637c.407 1.12 1.546 2.108 3.784 2.108 2.208 0 3.815-.987 3.815-3.527v-3.394h-.203c-.671 1.543-2.309 3.013-5.229 3.013-4.131 0-7.427-2.869-7.427-9.028 0-6.293 3.398-9.46 7.417-9.46 3.052 0 4.547 1.85 5.229 3.352h.193V34.17h5.046v18.694c0 4.73-3.723 7.136-8.953 7.136Zm.102-11.445c2.442 0 3.856-1.923 3.856-5.193 0-3.239-1.384-5.347-3.856-5.347-2.513 0-3.845 2.2-3.845 5.347 0 3.188 1.353 5.193 3.845 5.193Zm19.839 4.484c-5.636 0-9.085-3.661-9.085-9.533 0-5.706 3.499-9.573 8.881-9.573 4.843 0 8.607 3.106 8.607 9.399v1.408h-12.463c0 2.777 1.608 4.473 4.151 4.473 1.689 0 3.002-.74 3.51-2.159l4.7.319c-.712 3.434-3.764 5.666-8.301 5.666Zm-4.07-11.486h7.702a3.684 3.684 0 0 0-.244-1.473 3.65 3.65 0 0 0-2.043-2.071 3.581 3.581 0 0 0-1.457-.25 3.844 3.844 0 0 0-2.751 1.078 3.927 3.927 0 0 0-1.197 2.726l-.01-.01Zm29.626-2.108-4.649.288c-.255-1.193-1.303-2.16-3.063-2.16-1.577 0-2.818.72-2.808 1.83 0 .885.621 1.481 2.33 1.852l3.317.678c3.55.73 5.28 2.334 5.29 5.008-.01 3.65-3.408 6.098-8.159 6.098-4.853 0-7.834-2.18-8.302-5.718l4.985-.267c.316 1.501 1.526 2.283 3.337 2.283 1.77 0 2.95-.782 2.971-1.872-.021-.925-.743-1.522-2.34-1.85l-3.174-.638c-3.581-.72-5.311-2.52-5.291-5.285-.02-3.569 3.073-5.759 7.753-5.759 4.629 0 7.345 2.108 7.803 5.512Z" fill="url(#a)"/><path d="M68.01 52.679V28h9.635c5.534 0 8.749 3.455 8.749 8.36 0 4.936-3.266 8.319-8.882 8.319h-4.354v8H68h.01Zm5.148-12.185h3.51c2.95 0 4.395-1.687 4.395-4.134 0-2.458-1.445-4.093-4.426-4.093h-3.479v8.227Zm19.818 12.534c-3.49 0-6.084-1.85-6.084-5.522 0-4.133 3.256-5.357 6.888-5.696 3.174-.309 4.425-.473 4.425-1.666v-.072c0-1.512-.986-2.396-2.716-2.396-1.821 0-2.91.905-3.255 2.129l-4.69-.38c.702-3.374 3.58-5.492 7.976-5.492 4.07 0 7.772 1.851 7.772 6.262V52.68H98.47v-2.571h-.142c-.896 1.728-2.646 2.92-5.352 2.92Zm1.455-3.547c2.238 0 3.815-1.481 3.815-3.414v-1.964c-.61.411-2.421.668-3.53.822-1.79.258-2.97.967-2.97 2.417 0 1.409 1.118 2.139 2.685 2.139ZM114.086 60c-4.944 0-7.762-2.231-8.372-5.152l4.7-.637c.407 1.12 1.546 2.108 3.784 2.108 2.208 0 3.815-.987 3.815-3.527v-3.394h-.203c-.671 1.543-2.309 3.013-5.229 3.013-4.131 0-7.427-2.869-7.427-9.028 0-6.293 3.398-9.46 7.417-9.46 3.052 0 4.547 1.85 5.229 3.352h.193V34.17h5.046v18.694c0 4.73-3.723 7.136-8.953 7.136Zm.102-11.445c2.442 0 3.856-1.923 3.856-5.193 0-3.239-1.384-5.347-3.856-5.347-2.513 0-3.845 2.2-3.845 5.347 0 3.188 1.353 5.193 3.845 5.193Zm19.839 4.484c-5.636 0-9.085-3.661-9.085-9.533 0-5.706 3.499-9.573 8.881-9.573 4.843 0 8.607 3.106 8.607 9.399v1.408h-12.463c0 2.777 1.608 4.473 4.151 4.473 1.689 0 3.002-.74 3.51-2.159l4.7.319c-.712 3.434-3.764 5.666-8.301 5.666Zm-4.07-11.486h7.702a3.684 3.684 0 0 0-.244-1.473 3.65 3.65 0 0 0-2.043-2.071 3.581 3.581 0 0 0-1.457-.25 3.844 3.844 0 0 0-2.751 1.078 3.927 3.927 0 0 0-1.197 2.726l-.01-.01Zm29.626-2.108-4.649.288c-.255-1.193-1.303-2.16-3.063-2.16-1.577 0-2.818.72-2.808 1.83 0 .885.621 1.481 2.33 1.852l3.317.678c3.55.73 5.28 2.334 5.29 5.008-.01 3.65-3.408 6.098-8.159 6.098-4.853 0-7.834-2.18-8.302-5.718l4.985-.267c.316 1.501 1.526 2.283 3.337 2.283 1.77 0 2.95-.782 2.971-1.872-.021-.925-.743-1.522-2.34-1.85l-3.174-.638c-3.581-.72-5.311-2.52-5.291-5.285-.02-3.569 3.073-5.759 7.753-5.759 4.629 0 7.345 2.108 7.803 5.512Z" fill="url(#b)"/><path d="M75.72 15.126h-2.072c-.153-1.138-.964-1.838-2.082-1.838-1.509 0-2.493 1.236-2.493 3.393 0 2.2 1.005 3.37 2.472 3.37 1.098 0 1.908-.634 2.103-1.75l2.073.021c-.216 1.905-1.724 3.667-4.207 3.667-2.595 0-4.514-1.937-4.514-5.32 0-3.381 1.95-5.308 4.514-5.308 2.247 0 3.94 1.368 4.207 3.765Zm2.904-3.622v10.343h-2.02V11.503h2.02ZM82.964 22c-2.216 0-3.59-1.609-3.59-4.006 0-2.408 1.374-4.006 3.59-4.006 2.206 0 3.58 1.598 3.58 4.006 0 2.397-1.374 4.006-3.59 4.006h.01Zm0-1.664c1.006 0 1.529-.996 1.529-2.353 0-1.357-.523-2.353-1.529-2.353-1.016 0-1.539.996-1.539 2.353 0 1.357.523 2.353 1.54 2.353Zm8.998-1.795v-4.454h2.021v7.76h-1.939v-1.412h-.072c-.328.908-1.118 1.51-2.206 1.51-1.467 0-2.462-1.094-2.462-2.922v-4.936h2.011v4.553c0 .92.503 1.488 1.262 1.488.718 0 1.395-.547 1.385-1.587Zm5.746 3.437c-1.642 0-2.945-1.4-2.945-4.006 0-2.66 1.354-3.984 2.945-3.984 1.22 0 1.805.766 2.072 1.401h.062v-3.885h2.011v10.343h-1.99v-1.248h-.083a2.264 2.264 0 0 1-.831 1.03 2.052 2.052 0 0 1-1.231.35h-.01Zm.646-1.718c.975 0 1.539-.909 1.539-2.299 0-1.379-.554-2.265-1.539-2.265-.995 0-1.529.93-1.529 2.265 0 1.357.544 2.299 1.54 2.299h-.011Zm8.516-6.173v1.62h-1.457v6.14h-2.011v-6.14h-1.026v-1.631h1.026v-.559c0-1.696 1.026-2.517 2.38-2.517.626 0 1.18.131 1.436.219l-.359 1.609a2.168 2.168 0 0 0-.646-.11c-.595 0-.8.307-.8.832v.526h1.446l.011.01Zm2.688-2.583v10.343h-2.022V11.503h2.022Zm3.119 10.485c-1.385 0-2.411-.766-2.411-2.31 0-1.729 1.292-2.243 2.729-2.385 1.272-.132 1.764-.198 1.764-.701v-.033c0-.635-.389-1.007-1.077-1.007-.718 0-1.159.383-1.293.898l-1.867-.164c.277-1.423 1.426-2.299 3.17-2.299 1.621 0 3.078.766 3.078 2.627v5.232h-1.908v-1.073h-.051c-.359.723-1.057 1.215-2.134 1.215Zm.584-1.478c.883 0 1.509-.623 1.509-1.433v-.832c-.236.175-.955.284-1.396.35-.718.11-1.18.405-1.18 1.007 0 .602.442.908 1.067.908Zm4.525 1.336v-7.771h1.949v1.368h.082c.267-.963.934-1.467 1.745-1.467.205 0 .461.033.636.077v1.904a3.193 3.193 0 0 0-.852-.11c-.882 0-1.539.658-1.539 1.61v4.389h-2.021Zm7.869.153c-2.236 0-3.611-1.532-3.611-3.995 0-2.408 1.395-4.017 3.529-4.017 1.929 0 3.427 1.303 3.427 3.94v.591h-4.955c0 1.16.636 1.872 1.641 1.872.677 0 1.2-.306 1.395-.897l1.868.13c-.277 1.435-1.498 2.376-3.283 2.376h-.011Zm-1.61-4.816h3.047c0-.93-.616-1.598-1.488-1.598a1.488 1.488 0 0 0-1.087.458 1.69 1.69 0 0 0-.472 1.14Z" fill="#fff"/><path d="M75.72 15.126h-2.072c-.153-1.138-.964-1.838-2.082-1.838-1.509 0-2.493 1.236-2.493 3.393 0 2.2 1.005 3.37 2.472 3.37 1.098 0 1.908-.634 2.103-1.75l2.073.021c-.216 1.905-1.724 3.667-4.207 3.667-2.595 0-4.514-1.937-4.514-5.32 0-3.381 1.95-5.308 4.514-5.308 2.247 0 3.94 1.368 4.207 3.765Zm2.904-3.622v10.343h-2.02V11.503h2.02ZM82.964 22c-2.216 0-3.59-1.609-3.59-4.006 0-2.408 1.374-4.006 3.59-4.006 2.206 0 3.58 1.598 3.58 4.006 0 2.397-1.374 4.006-3.59 4.006h.01Zm0-1.664c1.006 0 1.529-.996 1.529-2.353 0-1.357-.523-2.353-1.529-2.353-1.016 0-1.539.996-1.539 2.353 0 1.357.523 2.353 1.54 2.353Zm8.998-1.795v-4.454h2.021v7.76h-1.939v-1.412h-.072c-.328.908-1.118 1.51-2.206 1.51-1.467 0-2.462-1.094-2.462-2.922v-4.936h2.011v4.553c0 .92.503 1.488 1.262 1.488.718 0 1.395-.547 1.385-1.587Zm5.746 3.437c-1.642 0-2.945-1.4-2.945-4.006 0-2.66 1.354-3.984 2.945-3.984 1.22 0 1.805.766 2.072 1.401h.062v-3.885h2.011v10.343h-1.99v-1.248h-.083a2.264 2.264 0 0 1-.831 1.03 2.052 2.052 0 0 1-1.231.35h-.01Zm.646-1.718c.975 0 1.539-.909 1.539-2.299 0-1.379-.554-2.265-1.539-2.265-.995 0-1.529.93-1.529 2.265 0 1.357.544 2.299 1.54 2.299h-.011Zm8.516-6.173v1.62h-1.457v6.14h-2.011v-6.14h-1.026v-1.631h1.026v-.559c0-1.696 1.026-2.517 2.38-2.517.626 0 1.18.131 1.436.219l-.359 1.609a2.168 2.168 0 0 0-.646-.11c-.595 0-.8.307-.8.832v.526h1.446l.011.01Zm2.688-2.583v10.343h-2.022V11.503h2.022Zm3.119 10.485c-1.385 0-2.411-.766-2.411-2.31 0-1.729 1.292-2.243 2.729-2.385 1.272-.132 1.764-.198 1.764-.701v-.033c0-.635-.389-1.007-1.077-1.007-.718 0-1.159.383-1.293.898l-1.867-.164c.277-1.423 1.426-2.299 3.17-2.299 1.621 0 3.078.766 3.078 2.627v5.232h-1.908v-1.073h-.051c-.359.723-1.057 1.215-2.134 1.215Zm.584-1.478c.883 0 1.509-.623 1.509-1.433v-.832c-.236.175-.955.284-1.396.35-.718.11-1.18.405-1.18 1.007 0 .602.442.908 1.067.908Zm4.525 1.336v-7.771h1.949v1.368h.082c.267-.963.934-1.467 1.745-1.467.205 0 .461.033.636.077v1.904a3.193 3.193 0 0 0-.852-.11c-.882 0-1.539.658-1.539 1.61v4.389h-2.021Zm7.869.153c-2.236 0-3.611-1.532-3.611-3.995 0-2.408 1.395-4.017 3.529-4.017 1.929 0 3.427 1.303 3.427 3.94v.591h-4.955c0 1.16.636 1.872 1.641 1.872.677 0 1.2-.306 1.395-.897l1.868.13c-.277 1.435-1.498 2.376-3.283 2.376h-.011Zm-1.61-4.816h3.047c0-.93-.616-1.598-1.488-1.598a1.488 1.488 0 0 0-1.087.458 1.69 1.69 0 0 0-.472 1.14Z" fill="url(#c)"/><path d="M75.72 15.126h-2.072c-.153-1.138-.964-1.838-2.082-1.838-1.509 0-2.493 1.236-2.493 3.393 0 2.2 1.005 3.37 2.472 3.37 1.098 0 1.908-.634 2.103-1.75l2.073.021c-.216 1.905-1.724 3.667-4.207 3.667-2.595 0-4.514-1.937-4.514-5.32 0-3.381 1.95-5.308 4.514-5.308 2.247 0 3.94 1.368 4.207 3.765Zm2.904-3.622v10.343h-2.02V11.503h2.02ZM82.964 22c-2.216 0-3.59-1.609-3.59-4.006 0-2.408 1.374-4.006 3.59-4.006 2.206 0 3.58 1.598 3.58 4.006 0 2.397-1.374 4.006-3.59 4.006h.01Zm0-1.664c1.006 0 1.529-.996 1.529-2.353 0-1.357-.523-2.353-1.529-2.353-1.016 0-1.539.996-1.539 2.353 0 1.357.523 2.353 1.54 2.353Zm8.998-1.795v-4.454h2.021v7.76h-1.939v-1.412h-.072c-.328.908-1.118 1.51-2.206 1.51-1.467 0-2.462-1.094-2.462-2.922v-4.936h2.011v4.553c0 .92.503 1.488 1.262 1.488.718 0 1.395-.547 1.385-1.587Zm5.746 3.437c-1.642 0-2.945-1.4-2.945-4.006 0-2.66 1.354-3.984 2.945-3.984 1.22 0 1.805.766 2.072 1.401h.062v-3.885h2.011v10.343h-1.99v-1.248h-.083a2.264 2.264 0 0 1-.831 1.03 2.052 2.052 0 0 1-1.231.35h-.01Zm.646-1.718c.975 0 1.539-.909 1.539-2.299 0-1.379-.554-2.265-1.539-2.265-.995 0-1.529.93-1.529 2.265 0 1.357.544 2.299 1.54 2.299h-.011Zm8.516-6.173v1.62h-1.457v6.14h-2.011v-6.14h-1.026v-1.631h1.026v-.559c0-1.696 1.026-2.517 2.38-2.517.626 0 1.18.131 1.436.219l-.359 1.609a2.168 2.168 0 0 0-.646-.11c-.595 0-.8.307-.8.832v.526h1.446l.011.01Zm2.688-2.583v10.343h-2.022V11.503h2.022Zm3.119 10.485c-1.385 0-2.411-.766-2.411-2.31 0-1.729 1.292-2.243 2.729-2.385 1.272-.132 1.764-.198 1.764-.701v-.033c0-.635-.389-1.007-1.077-1.007-.718 0-1.159.383-1.293.898l-1.867-.164c.277-1.423 1.426-2.299 3.17-2.299 1.621 0 3.078.766 3.078 2.627v5.232h-1.908v-1.073h-.051c-.359.723-1.057 1.215-2.134 1.215Zm.584-1.478c.883 0 1.509-.623 1.509-1.433v-.832c-.236.175-.955.284-1.396.35-.718.11-1.18.405-1.18 1.007 0 .602.442.908 1.067.908Zm4.525 1.336v-7.771h1.949v1.368h.082c.267-.963.934-1.467 1.745-1.467.205 0 .461.033.636.077v1.904a3.193 3.193 0 0 0-.852-.11c-.882 0-1.539.658-1.539 1.61v4.389h-2.021Zm7.869.153c-2.236 0-3.611-1.532-3.611-3.995 0-2.408 1.395-4.017 3.529-4.017 1.929 0 3.427 1.303 3.427 3.94v.591h-4.955c0 1.16.636 1.872 1.641 1.872.677 0 1.2-.306 1.395-.897l1.868.13c-.277 1.435-1.498 2.376-3.283 2.376h-.011Zm-1.61-4.816h3.047c0-.93-.616-1.598-1.488-1.598a1.488 1.488 0 0 0-1.087.458 1.69 1.69 0 0 0-.472 1.14Z" fill="url(#d)"/><path d="M36.631 7h14.33L53 9.083v45.834L50.962 57H31.433l.989-1.563H50.33l1.141-1.166V9.729L50.33 8.563H37.977l-1.458 7.697h-1.56l1.397-7.77.285-1.49h-.01ZM2.038 57 0 54.917V9.083L2.038 7h20.283l-1.03 1.563H2.672L1.528 9.729v44.542l1.141 1.166H17.43L17.184 57H2.038Zm3.058-5.208h8.664l-.306 1.562H4.077l-.51-.52v-9.376l1.53 3.125v5.209Zm34.654 0 1.529 1.562h-7.644l1.019-1.562h5.096Z" fill="#B7BBBD"/><path d="M23.276 38.188H9.162l-1.714-3.21L31.195 0l3.737 1.543-4.687 24.3h14.02L46 29.022 23.286 64l-3.779-1.44 3.769-24.372ZM5.549 14.526c-.411 0-.805-.162-1.095-.452a1.54 1.54 0 0 1 1.095-2.634c.41 0 .804.162 1.095.452a1.54 1.54 0 0 1-1.095 2.634Zm4.13 0c-.411 0-.805-.162-1.096-.452a1.54 1.54 0 0 1 1.095-2.634c.411 0 .805.162 1.095.452a1.54 1.54 0 0 1 0 2.182c-.29.29-.684.452-1.095.452Zm4.13 0c-.411 0-.805-.162-1.096-.452a1.54 1.54 0 0 1 1.095-2.634c.411 0 .805.162 1.095.452a1.54 1.54 0 0 1 0 2.182c-.29.29-.684.452-1.095.452Z" fill="url(#e)"/><defs><linearGradient id="a" x1="114" y1="28" x2="114" y2="60" gradientUnits="userSpaceOnUse"><stop stop-color="#fff"/><stop offset="1" stop-color="#fff" stop-opacity="0"/></linearGradient><linearGradient id="b" x1="114" y1="28" x2="114" y2="60" gradientUnits="userSpaceOnUse"><stop stop-color="#fff"/><stop offset="1" stop-color="#fff" stop-opacity="0"/></linearGradient><linearGradient id="c" x1="98" y1="11" x2="98" y2="22" gradientUnits="userSpaceOnUse"><stop stop-color="#fff"/><stop offset="1" stop-color="#fff" stop-opacity="0"/></linearGradient><linearGradient id="d" x1="98" y1="11" x2="98" y2="22" gradientUnits="userSpaceOnUse"><stop stop-color="#fff"/><stop offset="1" stop-color="#fff" stop-opacity="0"/></linearGradient><linearGradient id="e" x1="53.636" y1="-1.53" x2="-8.622" y2="38.044" gradientUnits="userSpaceOnUse"><stop stop-color="#FBB743"/><stop offset="1" stop-color="#EA6B00"/></linearGradient></defs></svg>