<svg width="25" height="24" fill="none" xmlns="http://www.w3.org/2000/svg"><g clip-path="url(#a)"><path d="M22.95 10.817a4.366 4.366 0 0 0-3-1.02A7.234 7.234 0 0 0 6.085 8.075 5.116 5.116 0 0 0 2.45 9.272 5.475 5.475 0 0 0 .5 13.408a5.344 5.344 0 0 0 5.332 5.331h4.418v-1.5H5.82A3.838 3.838 0 0 1 2 13.408a3.959 3.959 0 0 1 1.414-2.988 3.62 3.62 0 0 1 3.049-.792l.651.113.195-.632a5.732 5.732 0 0 1 11.207 1.523l.024.855.845-.136a3.105 3.105 0 0 1 2.593.606A3.044 3.044 0 0 1 23 14.262a2.981 2.981 0 0 1-2.977 2.977h-.049c-.091.002-.641.01-3.724.01v1.5c2.895 0 3.588-.007 3.773-.01a4.517 4.517 0 0 0 2.927-7.923v.001Z" fill="#fff"/><path d="M22.95 10.817a4.366 4.366 0 0 0-3-1.02A7.234 7.234 0 0 0 6.085 8.075 5.116 5.116 0 0 0 2.45 9.272 5.475 5.475 0 0 0 .5 13.408a5.344 5.344 0 0 0 5.332 5.331h4.418v-1.5H5.82A3.838 3.838 0 0 1 2 13.408a3.959 3.959 0 0 1 1.414-2.988 3.62 3.62 0 0 1 3.049-.792l.651.113.195-.632a5.732 5.732 0 0 1 11.207 1.523l.024.855.845-.136a3.105 3.105 0 0 1 2.593.606A3.044 3.044 0 0 1 23 14.262a2.981 2.981 0 0 1-2.977 2.977h-.049c-.091.002-.641.01-3.724.01v1.5c2.895 0 3.588-.007 3.773-.01a4.517 4.517 0 0 0 2.927-7.923v.001Z" fill="url(#b)"/><path d="M22.95 10.817a4.366 4.366 0 0 0-3-1.02A7.234 7.234 0 0 0 6.085 8.075 5.116 5.116 0 0 0 2.45 9.272 5.475 5.475 0 0 0 .5 13.408a5.344 5.344 0 0 0 5.332 5.331h4.418v-1.5H5.82A3.838 3.838 0 0 1 2 13.408a3.959 3.959 0 0 1 1.414-2.988 3.62 3.62 0 0 1 3.049-.792l.651.113.195-.632a5.732 5.732 0 0 1 11.207 1.523l.024.855.845-.136a3.105 3.105 0 0 1 2.593.606A3.044 3.044 0 0 1 23 14.262a2.981 2.981 0 0 1-2.977 2.977h-.049c-.091.002-.641.01-3.724.01v1.5c2.895 0 3.588-.007 3.773-.01a4.517 4.517 0 0 0 2.927-7.923v.001Z" fill="url(#c)"/><path d="m16.926 14.184-3.691-3.75-3.69 3.75 1.069 1.052 1.871-1.902v5.429h1.5v-5.429l1.872 1.902 1.07-1.052Z" fill="#fff"/><path d="m16.926 14.184-3.691-3.75-3.69 3.75 1.069 1.052 1.871-1.902v5.429h1.5v-5.429l1.872 1.902 1.07-1.052Z" fill="url(#d)"/><path d="m16.926 14.184-3.691-3.75-3.69 3.75 1.069 1.052 1.871-1.902v5.429h1.5v-5.429l1.872 1.902 1.07-1.052Z" fill="url(#e)"/></g><defs><linearGradient id="b" x1="12.5" y1="3.565" x2="12.5" y2="18.763" gradientUnits="userSpaceOnUse"><stop stop-color="#fff"/><stop offset="1" stop-color="#fff" stop-opacity="0"/></linearGradient><linearGradient id="c" x1="12.5" y1="3.565" x2="12.5" y2="18.763" gradientUnits="userSpaceOnUse"><stop stop-color="#fff"/><stop offset="1" stop-color="#fff" stop-opacity="0"/></linearGradient><linearGradient id="d" x1="12.5" y1="3.565" x2="12.5" y2="18.763" gradientUnits="userSpaceOnUse"><stop stop-color="#fff"/><stop offset="1" stop-color="#fff" stop-opacity="0"/></linearGradient><linearGradient id="e" x1="12.5" y1="3.565" x2="12.5" y2="18.763" gradientUnits="userSpaceOnUse"><stop stop-color="#fff"/><stop offset="1" stop-color="#fff" stop-opacity="0"/></linearGradient><clipPath id="a"><path fill="#fff" transform="translate(.5)" d="M0 0h24v24H0z"/></clipPath></defs></svg>