<svg width="21" height="22" fill="none" xmlns="http://www.w3.org/2000/svg"><path fill-rule="evenodd" clip-rule="evenodd" d="M20.125.5H.875L0 1.375v19.25l.875.875h19.25l.875-.875V1.375L20.125.5Zm-.875 19.25H1.75V2.25h17.5v17.5ZM10.062 8.908 3.939 5.313v2.066l3.927 2.307-3.928 2.302v2.075l6.126-3.6V8.909Zm6.563 6.03h-6.563v1.75h6.563v-1.75Z" fill="#fff"/><path fill-rule="evenodd" clip-rule="evenodd" d="M20.125.5H.875L0 1.375v19.25l.875.875h19.25l.875-.875V1.375L20.125.5Zm-.875 19.25H1.75V2.25h17.5v17.5ZM10.062 8.908 3.939 5.313v2.066l3.927 2.307-3.928 2.302v2.075l6.126-3.6V8.909Zm6.563 6.03h-6.563v1.75h6.563v-1.75Z" fill="url(#a)"/><path fill-rule="evenodd" clip-rule="evenodd" d="M20.125.5H.875L0 1.375v19.25l.875.875h19.25l.875-.875V1.375L20.125.5Zm-.875 19.25H1.75V2.25h17.5v17.5ZM10.062 8.908 3.939 5.313v2.066l3.927 2.307-3.928 2.302v2.075l6.126-3.6V8.909Zm6.563 6.03h-6.563v1.75h6.563v-1.75Z" fill="url(#b)"/><defs><linearGradient id="a" x1="10.5" y1=".5" x2="10.5" y2="21.5" gradientUnits="userSpaceOnUse"><stop stop-color="#fff"/><stop offset="1" stop-color="#fff" stop-opacity="0"/></linearGradient><linearGradient id="b" x1="10.5" y1=".5" x2="10.5" y2="21.5" gradientUnits="userSpaceOnUse"><stop stop-color="#fff"/><stop offset="1" stop-color="#fff" stop-opacity="0"/></linearGradient></defs></svg>